<svg width="409" height="68" viewBox="0 0 409 68" fill="none" xmlns="http://www.w3.org/2000/svg">
<path d="M39.936 36.16C40.576 35.8187 40.896 36.16 40.896 37.184C40.896 38.6347 40.2347 40.896 38.912 43.968C37.5893 47.04 35.7547 50.2613 33.408 53.632C32.2133 55.296 30.912 56.832 29.504 58.24C28.0533 59.6907 26.112 60.8 23.68 61.568C21.2907 62.3787 18.7733 62.784 16.128 62.784C12.672 62.784 9.792 62.1653 7.488 60.928C4.8 59.5627 2.944 57.728 1.92 55.424C0.64 52.6507 0 49.9627 0 47.36C0 45.824 0.213333 44.16 0.64 42.368C0.725333 41.984 1.04533 41.3227 1.6 40.384C2.624 38.5067 3.66933 37.0773 4.736 36.096C5.33333 35.5413 6.35733 34.7947 7.808 33.856L10.368 33.152L9.472 32.576C7.38133 31.4667 5.696 29.8453 4.416 27.712C3.648 26.3893 3.264 24.7467 3.264 22.784C3.264 19.7973 4.224 17.088 6.144 14.656C6.44267 14.2293 6.93333 13.632 7.616 12.864C7.70133 12.7787 8.10667 12.352 8.832 11.584C9.6 10.816 10.9227 10.048 12.8 9.28C14.6773 8.46933 16.8533 7.89333 19.328 7.552C21.0347 6.69867 22.5067 6.25067 23.744 6.208C27.712 6.08 30.336 6.29333 31.616 6.848C32.896 7.40266 33.6427 7.95733 33.856 8.512C34.0693 9.024 34.2187 9.30133 34.304 9.344L34.496 9.6C34.5813 9.728 34.7307 9.984 34.944 10.368C35.1573 10.752 35.3067 11.1147 35.392 11.456C35.4773 11.8827 35.52 12.2027 35.52 12.416C35.52 12.9707 35.3707 13.4613 35.072 13.888C34.6027 14.656 34.0693 15.296 33.472 15.808C30.9547 17.728 28.7147 18.688 26.752 18.688C24.96 18.688 23.1467 17.92 21.312 16.384C20.7147 15.5307 20.2453 15.0187 19.904 14.848C19.6053 14.6773 19.328 14.6773 19.072 14.848C18.9867 15.1893 18.7307 15.552 18.304 15.936C17.92 16.32 17.6427 16.5973 17.472 16.768L16.704 17.792C16.2773 18.432 16.0213 18.7947 15.936 18.88C15.3813 19.5627 14.9333 20.3733 14.592 21.312C14.2933 22.2507 14.144 23.2107 14.144 24.192C14.144 25.4293 14.3787 26.5813 14.848 27.648C15.3173 28.7147 15.9787 29.568 16.832 30.208C19.5627 32.256 21.5893 33.28 22.912 33.28C23.2533 33.28 23.5307 33.2373 23.744 33.152C24 33.0667 24.1707 33.024 24.256 33.024C24.3413 33.0667 24.5333 33.152 24.832 33.28C25.1733 33.408 25.344 33.6 25.344 33.856C25.344 34.2827 24.8533 34.6667 23.872 35.008C22.9333 35.3493 22.2507 35.456 21.824 35.328C21.696 35.2853 21.504 35.264 21.248 35.264C20.7787 35.264 20.288 35.4133 19.776 35.712C18.1973 36.5227 16.9387 37.5893 16 38.912C15.4453 39.7227 14.912 40.96 14.4 42.624L13.888 44.224C13.12 46.3573 12.736 48.064 12.736 49.344C12.736 51.008 13.0773 52.608 13.76 54.144C14.4853 55.68 15.5307 56.8747 16.896 57.728C17.664 58.1547 18.5387 58.496 19.52 58.752C20.544 59.008 21.5467 59.136 22.528 59.136C23.8507 59.136 24.96 58.9653 25.856 58.624C27.136 58.1547 28.224 57.4933 29.12 56.64C30.0587 55.7867 31.1467 54.592 32.384 53.056L33.472 51.712C37.312 47.232 39.3387 43.5627 39.552 40.704C39.7653 37.8453 39.8933 36.3307 39.936 36.16ZM23.104 16.32C23.872 16.8747 24.2987 17.1733 24.384 17.216C24.8107 17.4293 25.344 17.536 25.984 17.536C26.3253 17.536 26.8373 17.4933 27.52 17.408C29.0987 17.2373 30.4213 16.6827 31.488 15.744C32.5547 14.7627 33.088 13.76 33.088 12.736C33.088 11.84 32.64 11.1147 31.744 10.56C30.848 9.96266 29.4827 9.664 27.648 9.664C26.5813 9.664 25.5147 9.74933 24.448 9.92C24.2347 9.96266 23.808 10.1547 23.168 10.496C22.528 10.8373 21.9307 11.264 21.376 11.776C20.8213 12.288 20.544 12.8427 20.544 13.44C20.544 14.464 21.3973 15.424 23.104 16.32ZM59.069 25.92L59.837 25.856C60.093 25.856 60.349 25.92 60.605 26.048C60.9463 26.2187 61.2663 26.432 61.565 26.688C61.8637 26.944 62.2903 27.4347 62.845 28.16C62.845 28.3307 62.8663 28.48 62.909 28.608C62.9943 28.736 63.037 28.8853 63.037 29.056C63.0797 29.2693 63.101 29.568 63.101 29.952C63.101 30.2933 63.0583 30.7627 62.973 31.36C62.9303 31.9573 62.8237 32.8107 62.653 33.92L62.333 35.776C62.333 35.904 62.2903 36.0107 62.205 36.096C62.077 36.2667 61.9703 36.5653 61.885 36.992C61.885 37.0773 61.8423 37.2907 61.757 37.632C61.757 37.8027 61.7357 37.9307 61.693 38.016C61.8637 38.016 61.9703 37.952 62.013 37.824L64.253 34.112C64.253 34.0693 64.3597 33.8987 64.573 33.6C64.7437 33.4293 65.2557 32.7467 66.109 31.552C66.7063 30.6987 67.0477 30.2293 67.133 30.144C67.2183 30.1013 67.2823 30.016 67.325 29.888C67.4103 29.76 67.4743 29.6533 67.517 29.568C68.1143 28.544 68.8823 27.5627 69.821 26.624L72.061 24.448C72.7863 23.7227 73.5117 23.1893 74.237 22.848C74.4077 22.7627 74.557 22.6773 74.685 22.592C74.8557 22.5067 74.9837 22.4427 75.069 22.4C76.1357 21.5893 77.4157 21.184 78.909 21.184C79.7623 21.184 80.6157 21.3333 81.469 21.632C82.3223 21.888 83.069 22.2507 83.709 22.72C84.5623 23.36 85.1597 24.128 85.501 25.024C85.885 25.8773 86.077 26.7307 86.077 27.584C86.077 28.2667 86.013 28.736 85.885 28.992C85.7997 29.248 85.7357 29.568 85.693 29.952C85.6503 30.336 85.5863 30.6773 85.501 30.976C85.3303 31.7013 85.0743 32.4053 84.733 33.088C84.5197 33.6853 84.221 34.304 83.837 34.944C83.709 35.2427 83.4957 35.6693 83.197 36.224C82.941 36.7787 82.7277 37.2907 82.557 37.76C82.173 38.784 81.7677 40.4907 81.341 42.88C81.085 44.2453 80.8717 45.2693 80.701 45.952C80.061 48.8107 79.7197 51.072 79.677 52.736V53.696C79.677 54.1227 79.6557 54.4427 79.613 54.656C79.485 55.0827 79.421 55.5733 79.421 56.128C79.421 56.9387 79.549 57.7067 79.805 58.432C80.1037 59.1573 80.509 59.6693 81.021 59.968C81.2343 60.096 81.4263 60.096 81.597 59.968C83.0477 59.84 84.2423 59.0933 85.181 57.728C86.1623 56.3627 87.1437 54.5707 88.125 52.352C88.253 52.096 88.4023 51.7547 88.573 51.328C88.7863 50.8587 88.957 50.5173 89.085 50.304C89.853 48.9813 90.5143 47.6587 91.069 46.336L93.245 42.176C93.373 41.92 93.7997 41.1307 94.525 39.808C94.6957 39.5093 94.8877 39.1253 95.101 38.656C95.357 38.144 95.677 37.5467 96.061 36.864C96.1037 36.864 96.189 36.864 96.317 36.864C96.4877 36.864 96.637 36.9067 96.765 36.992C96.7223 37.376 96.5303 37.8667 96.189 38.464C95.8903 38.9333 95.6983 39.2747 95.613 39.488C95.485 39.7013 95.293 40 95.037 40.384C94.781 40.7253 94.5677 41.024 94.397 41.28L93.693 42.752C93.565 43.0507 93.3303 43.52 92.989 44.16C92.6903 44.8 92.3917 45.3547 92.093 45.824C91.8797 46.208 91.645 46.784 91.389 47.552C91.1757 48.4053 90.877 49.1093 90.493 49.664C90.1943 50.0907 89.9383 50.624 89.725 51.264C89.5543 51.904 89.405 52.3733 89.277 52.672C89.021 53.3547 88.7863 53.8453 88.573 54.144C87.8477 55.2533 87.293 56.2347 86.909 57.088C86.397 58.112 85.7783 58.88 85.053 59.392C84.7543 59.648 84.349 59.9893 83.837 60.416C83.325 60.8853 82.7917 61.2267 82.237 61.44L81.917 61.504C79.997 62.144 78.3757 62.464 77.053 62.464C75.389 62.464 74.0663 62.08 73.085 61.312C72.1037 60.5867 71.421 59.7973 71.037 58.944C70.6957 58.1333 70.3757 57.1733 70.077 56.064L69.949 54.976L69.629 52.544V52.288V49.664C69.629 46.8053 69.9917 44.0107 70.717 41.28C71.4423 38.5493 72.509 35.3067 73.917 31.552L75.389 27.84C75.8157 26.8587 76.029 26.112 76.029 25.6C76.029 25.0453 75.7943 24.768 75.325 24.768C74.941 24.768 74.621 24.896 74.365 25.152C72.829 26.3893 71.6557 27.3707 70.845 28.096C70.077 28.8213 69.2023 29.7813 68.221 30.976C66.9837 32.4693 65.8317 34.24 64.765 36.288C64.1677 37.312 63.677 38.336 63.293 39.36C62.525 41.024 61.8423 42.3253 61.245 43.264C61.1597 43.3493 61.0743 43.4773 60.989 43.648C60.861 43.904 60.6477 44.3093 60.349 44.864C60.093 45.376 59.8797 45.8667 59.709 46.336L59.453 46.848C59.1117 47.4453 58.877 47.9147 58.749 48.256C58.6637 48.5973 58.621 48.896 58.621 49.152C58.5783 49.408 58.2797 49.856 57.725 50.496C57.1703 51.0933 56.7223 51.3493 56.381 51.264L55.549 50.752C55.165 50.5813 54.8237 50.1973 54.525 49.6C54.269 48.7467 54.141 47.8933 54.141 47.04C54.0983 45.632 54.2903 43.9893 54.717 42.112C54.7597 41.8133 54.8237 41.5573 54.909 41.344C54.9943 41.1307 55.0583 40.9387 55.101 40.768L55.741 38.592C56.509 36.2027 57.0423 34.3893 57.341 33.152L57.469 32.768C57.725 32 57.917 31.232 58.045 30.464L58.365 29.056L58.493 28.288C58.493 27.8613 58.3223 27.648 57.981 27.648C57.5543 27.648 56.8717 27.9893 55.933 28.672C55.4637 28.9707 54.845 29.7173 54.077 30.912C53.7357 31.5093 53.4797 31.9147 53.309 32.128C52.1143 33.8347 51.2823 35.1573 50.813 36.096C50.5997 36.5227 50.3223 37.1627 49.981 38.016C49.5117 39.168 49.149 39.936 48.893 40.32C48.5943 40.832 48.2957 41.4293 47.997 42.112C47.741 42.7947 47.5703 43.264 47.485 43.52C47.4423 43.6053 47.3997 43.712 47.357 43.84C47.3143 43.968 47.293 44.096 47.293 44.224L47.101 48.192C46.8877 48.6187 46.6317 48.9813 46.333 49.28C46.205 49.408 46.0557 49.5787 45.885 49.792C45.757 50.0053 45.6077 50.1333 45.437 50.176C43.517 51.3707 42.0023 51.968 40.893 51.968C39.357 51.968 38.461 50.944 38.205 48.896V47.36L38.269 43.2L38.461 41.344C38.5037 40.7467 38.589 40.064 38.717 39.296C38.845 38.528 38.9517 37.9307 39.037 37.504C39.165 36.992 39.3143 36.0747 39.485 34.752C39.5703 34.2827 39.6557 33.664 39.741 32.896C39.8263 31.616 39.9543 30.6773 40.125 30.08C40.4237 28.928 40.7863 27.2 41.213 24.896V24.704L41.149 23.936C41.149 23.68 41.1917 23.488 41.277 23.36C41.4903 22.848 41.9383 22.3573 42.621 21.888C43.3037 21.4187 43.965 21.184 44.605 21.184C45.885 21.184 46.589 22.1227 46.717 24C46.9303 24.0853 47.037 24.2773 47.037 24.576V25.728C47.037 26.1547 47.165 26.56 47.421 26.944C47.677 27.2 47.805 27.584 47.805 28.096C47.805 28.5227 47.7197 29.0773 47.549 29.76C47.421 30.272 47.3143 31.0827 47.229 32.192C47.229 32.6187 47.1863 33.1733 47.101 33.856C47.0157 34.88 46.9303 36.4587 46.845 38.592C46.845 38.72 46.8023 38.9547 46.717 39.296C46.6317 39.4667 46.589 39.744 46.589 40.128L46.525 41.28L46.781 41.088C47.2077 40.1493 47.549 39.4667 47.805 39.04C47.933 38.784 48.0823 38.5067 48.253 38.208C48.4663 37.8667 48.6797 37.5253 48.893 37.184C49.8317 35.7333 50.5357 34.5173 51.005 33.536C51.3463 32.9387 51.6237 32.4907 51.837 32.192L52.669 30.912C52.8397 30.656 52.989 30.464 53.117 30.336L54.845 28.416C55.0583 28.16 55.6557 27.648 56.637 26.88L58.877 25.92H59.069ZM114.132 25.92L114.9 25.856C115.156 25.856 115.412 25.92 115.668 26.048C116.009 26.2187 116.329 26.432 116.628 26.688C116.926 26.944 117.353 27.4347 117.908 28.16C117.908 28.3307 117.929 28.48 117.972 28.608C118.057 28.736 118.1 28.8853 118.1 29.056C118.142 29.2693 118.164 29.568 118.164 29.952C118.164 30.2933 118.121 30.7627 118.036 31.36C117.993 31.9573 117.886 32.8107 117.716 33.92L117.396 35.776C117.396 35.904 117.353 36.0107 117.268 36.096C117.14 36.2667 117.033 36.5653 116.948 36.992C116.948 37.0773 116.905 37.2907 116.82 37.632C116.82 37.8027 116.798 37.9307 116.756 38.016C116.926 38.016 117.033 37.952 117.076 37.824L119.316 34.112C119.316 34.0693 119.422 33.8987 119.636 33.6C119.806 33.4293 120.318 32.7467 121.172 31.552C121.769 30.6987 122.11 30.2293 122.196 30.144C122.281 30.1013 122.345 30.016 122.388 29.888C122.473 29.76 122.537 29.6533 122.58 29.568C123.177 28.544 123.945 27.5627 124.884 26.624L127.124 24.448C127.849 23.7227 128.574 23.1893 129.3 22.848C129.47 22.7627 129.62 22.6773 129.748 22.592C129.918 22.5067 130.046 22.4427 130.132 22.4C131.198 21.5893 132.478 21.184 133.972 21.184C134.825 21.184 135.678 21.3333 136.532 21.632C137.385 21.888 138.132 22.2507 138.772 22.72C139.625 23.36 140.222 24.128 140.564 25.024C140.948 25.8773 141.14 26.7307 141.14 27.584C141.14 28.2667 141.076 28.736 140.948 28.992C140.862 29.248 140.798 29.568 140.756 29.952C140.713 30.336 140.649 30.6773 140.564 30.976C140.393 31.7013 140.137 32.4053 139.796 33.088C139.582 33.6853 139.284 34.304 138.9 34.944C138.772 35.2427 138.558 35.6693 138.26 36.224C138.004 36.7787 137.79 37.2907 137.62 37.76C137.236 38.784 136.83 40.4907 136.404 42.88C136.148 44.2453 135.934 45.2693 135.764 45.952C135.124 48.8107 134.782 51.072 134.74 52.736V53.696C134.74 54.1227 134.718 54.4427 134.676 54.656C134.548 55.0827 134.484 55.5733 134.484 56.128C134.484 56.9387 134.612 57.7067 134.868 58.432C135.166 59.1573 135.572 59.6693 136.084 59.968C136.297 60.096 136.489 60.096 136.66 59.968C138.11 59.84 139.305 59.0933 140.244 57.728C141.225 56.3627 142.206 54.5707 143.188 52.352C143.316 52.096 143.465 51.7547 143.636 51.328C143.849 50.8587 144.02 50.5173 144.148 50.304C144.916 48.9813 145.577 47.6587 146.132 46.336L148.308 42.176C148.436 41.92 148.862 41.1307 149.588 39.808C149.758 39.5093 149.95 39.1253 150.164 38.656C150.42 38.144 150.74 37.5467 151.124 36.864C151.166 36.864 151.252 36.864 151.38 36.864C151.55 36.864 151.7 36.9067 151.828 36.992C151.785 37.376 151.593 37.8667 151.252 38.464C150.953 38.9333 150.761 39.2747 150.676 39.488C150.548 39.7013 150.356 40 150.1 40.384C149.844 40.7253 149.63 41.024 149.46 41.28L148.756 42.752C148.628 43.0507 148.393 43.52 148.052 44.16C147.753 44.8 147.454 45.3547 147.156 45.824C146.942 46.208 146.708 46.784 146.452 47.552C146.238 48.4053 145.94 49.1093 145.556 49.664C145.257 50.0907 145.001 50.624 144.788 51.264C144.617 51.904 144.468 52.3733 144.34 52.672C144.084 53.3547 143.849 53.8453 143.636 54.144C142.91 55.2533 142.356 56.2347 141.972 57.088C141.46 58.112 140.841 58.88 140.116 59.392C139.817 59.648 139.412 59.9893 138.9 60.416C138.388 60.8853 137.854 61.2267 137.3 61.44L136.98 61.504C135.06 62.144 133.438 62.464 132.116 62.464C130.452 62.464 129.129 62.08 128.148 61.312C127.166 60.5867 126.484 59.7973 126.1 58.944C125.758 58.1333 125.438 57.1733 125.14 56.064L125.012 54.976L124.692 52.544V52.288V49.664C124.692 46.8053 125.054 44.0107 125.78 41.28C126.505 38.5493 127.572 35.3067 128.979 31.552L130.451 27.84C130.878 26.8587 131.092 26.112 131.092 25.6C131.092 25.0453 130.857 24.768 130.388 24.768C130.004 24.768 129.684 24.896 129.428 25.152C127.892 26.3893 126.718 27.3707 125.908 28.096C125.14 28.8213 124.265 29.7813 123.284 30.976C122.046 32.4693 120.894 34.24 119.828 36.288C119.23 37.312 118.74 38.336 118.356 39.36C117.588 41.024 116.905 42.3253 116.308 43.264C116.222 43.3493 116.137 43.4773 116.052 43.648C115.924 43.904 115.71 44.3093 115.412 44.864C115.156 45.376 114.942 45.8667 114.772 46.336L114.516 46.848C114.174 47.4453 113.94 47.9147 113.812 48.256C113.726 48.5973 113.684 48.896 113.684 49.152C113.641 49.408 113.342 49.856 112.788 50.496C112.233 51.0933 111.785 51.3493 111.444 51.264L110.612 50.752C110.228 50.5813 109.886 50.1973 109.588 49.6C109.332 48.7467 109.204 47.8933 109.204 47.04C109.161 45.632 109.353 43.9893 109.78 42.112C109.822 41.8133 109.886 41.5573 109.972 41.344C110.057 41.1307 110.121 40.9387 110.164 40.768L110.804 38.592C111.572 36.2027 112.105 34.3893 112.404 33.152L112.532 32.768C112.788 32 112.98 31.232 113.108 30.464L113.428 29.056L113.556 28.288C113.556 27.8613 113.385 27.648 113.044 27.648C112.617 27.648 111.934 27.9893 110.996 28.672C110.526 28.9707 109.908 29.7173 109.14 30.912C108.798 31.5093 108.542 31.9147 108.372 32.128C107.177 33.8347 106.345 35.1573 105.876 36.096C105.662 36.5227 105.385 37.1627 105.044 38.016C104.574 39.168 104.212 39.936 103.956 40.32C103.657 40.832 103.358 41.4293 103.06 42.112C102.804 42.7947 102.633 43.264 102.548 43.52C102.505 43.6053 102.462 43.712 102.42 43.84C102.377 43.968 102.356 44.096 102.356 44.224L102.164 48.192C101.95 48.6187 101.694 48.9813 101.396 49.28C101.268 49.408 101.118 49.5787 100.948 49.792C100.82 50.0053 100.67 50.1333 100.5 50.176C98.5795 51.3707 97.0648 51.968 95.9555 51.968C94.4195 51.968 93.5235 50.944 93.2675 48.896V47.36L93.3315 43.2L93.5235 41.344C93.5662 40.7467 93.6515 40.064 93.7795 39.296C93.9075 38.528 94.0142 37.9307 94.0995 37.504C94.2275 36.992 94.3768 36.0747 94.5475 34.752C94.6328 34.2827 94.7182 33.664 94.8035 32.896C94.8888 31.616 95.0168 30.6773 95.1875 30.08C95.4862 28.928 95.8488 27.2 96.2755 24.896V24.704L96.2115 23.936C96.2115 23.68 96.2542 23.488 96.3395 23.36C96.5528 22.848 97.0008 22.3573 97.6835 21.888C98.3662 21.4187 99.0275 21.184 99.6675 21.184C100.948 21.184 101.652 22.1227 101.78 24C101.993 24.0853 102.1 24.2773 102.1 24.576V25.728C102.1 26.1547 102.228 26.56 102.484 26.944C102.74 27.2 102.868 27.584 102.868 28.096C102.868 28.5227 102.782 29.0773 102.612 29.76C102.484 30.272 102.377 31.0827 102.292 32.192C102.292 32.6187 102.249 33.1733 102.164 33.856C102.078 34.88 101.993 36.4587 101.908 38.592C101.908 38.72 101.865 38.9547 101.78 39.296C101.694 39.4667 101.652 39.744 101.652 40.128L101.588 41.28L101.844 41.088C102.27 40.1493 102.612 39.4667 102.868 39.04C102.996 38.784 103.145 38.5067 103.316 38.208C103.529 37.8667 103.742 37.5253 103.956 37.184C104.894 35.7333 105.598 34.5173 106.068 33.536C106.409 32.9387 106.686 32.4907 106.9 32.192L107.732 30.912C107.902 30.656 108.052 30.464 108.18 30.336L109.908 28.416C110.121 28.16 110.718 27.648 111.7 26.88L113.94 25.92H114.132ZM158.378 44.352C157.781 44.9493 156.885 45.4187 155.69 45.76C154.538 46.0587 153.642 46.208 153.002 46.208C151.466 46.208 150.335 45.6747 149.61 44.608C149.354 44.2667 149.141 43.7973 148.97 43.2C148.757 42.3467 148.65 41.536 148.65 40.768C148.65 40.1707 148.714 39.552 148.842 38.912L149.162 36.992L149.738 35.072C149.823 34.816 149.951 34.496 150.122 34.112C150.25 33.728 150.378 33.28 150.506 32.768C150.933 31.232 151.679 29.8453 152.746 28.608C152.831 28.5227 153.301 27.9893 154.154 27.008C155.05 26.0267 156.181 25.344 157.546 24.96C158.57 24.704 159.445 24.576 160.17 24.576C161.322 24.576 162.175 24.7253 162.73 25.024C163.327 25.28 163.669 25.4293 163.754 25.472C164.394 25.7707 164.714 26.0267 164.714 26.24C164.714 26.7093 163.413 26.944 160.81 26.944C158.335 26.944 156.522 27.712 155.37 29.248C154.218 30.7413 153.407 32.1493 152.938 33.472C152.511 34.7947 152.234 35.6053 152.106 35.904C151.679 37.312 151.466 38.6987 151.466 40.064C151.466 41.5573 151.743 42.7733 152.298 43.712C152.895 44.6507 153.813 45.12 155.05 45.12C155.605 45.12 156.266 44.992 157.034 44.736C157.759 44.48 158.271 44.032 158.57 43.392C158.911 42.752 159.189 41.92 159.402 40.896C159.53 40.0853 159.701 39.5093 159.914 39.168C159.999 38.9547 160.063 38.6987 160.106 38.4C160.191 38.1013 160.255 37.8667 160.298 37.696C160.341 37.5253 160.383 37.2907 160.426 36.992C160.511 36.6507 160.597 36.3733 160.682 36.16C160.81 35.648 160.938 35.2 161.066 34.816C161.237 34.432 161.365 34.112 161.45 33.856C161.535 33.5573 161.642 33.216 161.77 32.832C161.941 32.4053 162.09 31.936 162.218 31.424C162.389 30.912 162.879 30.2293 163.69 29.376C164.543 28.48 165.482 27.712 166.506 27.072C167.573 26.3893 168.469 26.048 169.194 26.048C170.303 26.048 170.858 26.8587 170.858 28.48C170.858 29.1627 170.773 29.9093 170.602 30.72L170.794 31.104V31.296C170.794 31.5093 170.751 31.7867 170.666 32.128C170.581 32.4267 170.581 32.704 170.666 32.96C170.709 33.1733 170.709 33.3653 170.666 33.536C170.666 33.664 170.666 33.792 170.666 33.92C170.666 34.56 170.559 35.392 170.346 36.416C170.133 37.3973 169.983 38.08 169.898 38.464L169.642 40.512L169.386 42.56C169.215 43.2853 169.109 43.776 169.066 44.032L168.682 45.76C167.957 48.6613 167.594 50.688 167.594 51.84C167.594 53.2907 168.042 53.8667 168.938 53.568C170.815 53.0133 172.565 51.2853 174.186 48.384C175.807 45.44 177.429 42.048 179.05 38.208C179.477 37.1413 179.711 36.608 179.754 36.608C180.01 36.608 180.138 36.6933 180.138 36.864C180.138 37.376 180.053 37.8027 179.882 38.144C179.583 38.5707 179.157 39.424 178.602 40.704C178.09 41.984 177.791 42.7307 177.706 42.944C174.89 49.4293 171.925 53.248 168.81 54.4C166.378 55.296 164.458 55.744 163.05 55.744C161.301 55.744 160.106 55.1253 159.466 53.888C158.869 52.6507 158.57 50.7093 158.57 48.064C158.57 47.424 158.613 46.7627 158.698 46.08C158.783 45.3547 158.847 44.8213 158.89 44.48V43.904L158.378 44.352ZM207.855 54.592C207.727 54.464 207.62 54.4 207.535 54.4C206.042 53.8453 204.826 53.0987 203.887 52.16C202.991 51.1787 202.223 49.984 201.583 48.576C200.602 46.4427 199.855 43.8187 199.343 40.704L198.703 36.928C198.575 36.032 198.511 34.2187 198.511 31.488L198.575 28.736C198.66 27.5413 198.682 26.624 198.639 25.984C198.554 23.936 198.703 21.9307 199.087 19.968C199.343 18.5173 199.812 16.9173 200.495 15.168C200.879 14.016 201.626 12.9707 202.735 12.032C203.887 11.008 204.463 10.496 204.463 10.496C205.231 9.89867 206.404 9.6 207.983 9.6L209.391 9.664C211.951 9.664 213.722 10.9013 214.703 13.376C215.684 15.808 216.175 19.4987 216.175 24.448C216.175 26.368 216.154 27.8613 216.111 28.928C216.026 31.7867 215.706 34.688 215.151 37.632C214.596 40.5333 213.828 43.9467 212.847 47.872C212.847 48 212.826 48.1067 212.783 48.192C212.698 48.448 212.698 48.7467 212.783 49.088C212.911 49.3867 213.039 49.9627 213.167 50.816C213.551 52.6507 214.426 53.568 215.791 53.568C217.114 53.568 218.714 52.7787 220.591 51.2C222.468 49.6213 224.367 47.5307 226.287 44.928C228.207 42.2827 229.85 39.488 231.215 36.544C231.215 36.672 231.215 36.8213 231.215 36.992C231.258 37.12 231.258 37.2693 231.215 37.44L230.383 39.488C229.103 42.176 227.78 44.5227 226.415 46.528C225.05 48.4907 223.407 50.176 221.487 51.584C219.695 52.9067 218.138 53.824 216.815 54.336C216.004 54.6347 215.172 54.8693 214.319 55.04C213.466 55.168 212.42 55.296 211.183 55.424L210.479 55.36C210.223 55.36 210.031 55.424 209.903 55.552C208.026 57.1733 206.767 58.4747 206.127 59.456C205.828 59.8827 205.466 60.2667 205.039 60.608C204.655 60.992 203.951 61.568 202.927 62.336C201.562 63.3173 199.855 63.9573 197.807 64.256C196.698 64.3413 195.866 64.4267 195.311 64.512C194.458 64.5973 193.818 64.64 193.391 64.64C190.703 64.64 188.1 64.0853 185.583 62.976C183.066 61.8667 181.252 60.3307 180.143 58.368C179.46 57.2587 178.799 55.6587 178.159 53.568C177.22 50.5813 176.602 48.128 176.303 46.208C176.218 45.696 176.175 44.928 176.175 43.904C176.175 43.0933 176.26 41.8773 176.431 40.256L176.751 37.376C176.922 36.2667 177.071 34.8587 177.199 33.152C177.455 30.336 177.647 28.5867 177.775 27.904C178.074 26.0693 178.415 24.5333 178.799 23.296C179.268 21.4187 179.951 19.776 180.847 18.368L181.231 17.728C181.914 16.32 182.831 14.784 183.983 13.12C185.434 10.9013 187.354 9.06666 189.743 7.616C192.132 6.16533 194.927 5.14133 198.127 4.544C201.37 3.904 204.527 3.584 207.599 3.584C207.855 3.49866 208.026 3.456 208.111 3.456C208.239 3.456 208.41 3.52 208.623 3.648C208.751 3.776 208.986 3.92533 209.327 4.096C209.668 4.26666 209.775 4.50133 209.647 4.8C209.604 5.01333 209.434 5.22667 209.135 5.44C209.05 5.48266 208.26 5.568 206.767 5.696C205.316 5.78133 203.588 6.44266 201.583 7.68C199.62 8.91733 197.786 10.9013 196.079 13.632L195.823 14.016C195.183 14.5707 194.863 15.2107 194.863 15.936C194.863 16.0213 194.82 16.1493 194.735 16.32C194.479 16.832 194.308 17.4293 194.223 18.112C194.138 18.752 194.095 19.136 194.095 19.264C194.095 19.4773 194.052 19.7547 193.967 20.096C193.796 20.608 193.391 21.9307 192.751 24.064C192.58 24.7467 192.474 25.2587 192.431 25.6C192.132 27.136 191.77 29.7813 191.343 33.536C191.002 36.3947 190.746 38.3573 190.575 39.424C190.276 41.2587 190.127 43.2427 190.127 45.376C190.127 46.6987 190.148 47.7013 190.191 48.384C190.234 50.8587 190.895 53.3333 192.175 55.808C192.26 55.9787 192.303 56.128 192.303 56.256C193.028 58.6027 194.564 60.3733 196.911 61.568C197.423 61.824 197.956 61.952 198.511 61.952C200.047 61.952 201.711 61.184 203.503 59.648C205.338 58.112 206.788 56.4267 207.855 54.592ZM210.799 48.32C210.97 48.1067 211.076 47.872 211.119 47.616L211.503 46.336C211.972 44.8 212.228 43.9467 212.271 43.776C212.911 41.8133 213.423 38.9547 213.807 35.2C214.234 31.4453 214.447 27.84 214.447 24.384C214.447 21.6107 214.298 19.4773 213.999 17.984C213.7 16.2773 213.146 14.912 212.335 13.888C211.567 12.864 210.756 12.352 209.903 12.352C209.092 12.352 208.367 12.864 207.727 13.888C207.13 14.912 206.724 16.448 206.511 18.496C206.468 19.008 206.447 19.7973 206.447 20.864C206.447 22.3147 206.468 23.4027 206.511 24.128C206.767 28.3093 207.087 32.8107 207.471 37.632C207.556 39.2107 207.706 40.384 207.919 41.152C208.09 41.8347 208.324 42.5813 208.623 43.392C208.922 44.2027 209.114 44.7573 209.199 45.056C209.37 45.568 209.519 45.952 209.647 46.208C209.775 46.5493 209.924 46.9333 210.095 47.36C210.308 47.7867 210.479 48.1067 210.607 48.32H210.799ZM254.127 36.48C254.127 36.6933 254.105 36.992 254.063 37.376C254.02 37.7173 253.977 38.016 253.935 38.272C253.807 39.2107 253.465 40.2133 252.911 41.28L251.951 43.2C251.268 44.48 250.841 45.312 250.671 45.696C250.116 46.848 249.604 47.8293 249.135 48.64L248.367 50.048L247.663 51.456C246.425 53.8453 245.487 55.5093 244.847 56.448C244.42 57.1733 244.143 57.6213 244.015 57.792L242.799 59.136C242.287 59.776 241.86 60.224 241.519 60.48C241.177 60.7787 240.388 61.2907 239.151 62.016C238.169 62.6133 237.252 62.912 236.399 62.912C235.631 62.912 235.076 62.72 234.735 62.336C234.393 61.9947 234.18 61.8027 234.095 61.76C233.156 61.248 232.345 60.48 231.663 59.456C231.023 58.4747 230.532 57.3867 230.191 56.192C230.02 55.4667 229.87 54.6347 229.742 53.696C229.572 52.7573 229.444 52.0747 229.358 51.648L229.166 50.304C229.081 49.9627 228.996 49.3653 228.91 48.512C228.825 47.4027 228.782 46.5493 228.782 45.952C228.782 44.672 228.846 43.392 228.974 42.112C229.06 40.832 229.102 39.8507 229.102 39.168C229.145 37.9307 229.23 36.6507 229.358 35.328C229.444 34.0053 229.636 32.8107 229.934 31.744C230.062 31.1467 230.233 30.4213 230.447 29.568C231.044 27.136 231.407 25.2373 231.535 23.872C231.663 22.72 231.919 21.568 232.303 20.416C232.729 19.2213 232.985 18.496 233.071 18.24C233.241 17.856 233.455 17.28 233.711 16.512C234.735 13.5253 235.567 11.2853 236.207 9.792C237.017 8 238.148 6.35733 239.599 4.864C241.049 3.328 242.543 2.19733 244.079 1.472C245.657 0.746665 247.172 0.383999 248.623 0.383999C249.775 0.383999 250.841 0.597332 251.823 1.024C252.804 1.45066 253.593 2.02666 254.191 2.752C254.233 2.79467 254.383 2.88 254.639 3.008L254.959 3.2C255.001 3.41333 255.151 3.712 255.407 4.096C255.663 4.48 255.812 4.8 255.855 5.056C255.897 5.26933 256.004 5.61067 256.175 6.08C256.345 6.50666 256.452 6.848 256.495 7.104C256.58 7.488 256.623 8.064 256.623 8.832C256.623 10.2827 256.281 12.032 255.599 14.08C254.745 16.6827 253.871 18.7947 252.975 20.416L252.463 21.632L251.951 22.848C251.78 23.1893 251.481 23.7013 251.055 24.384C250.756 24.7253 250.521 25.088 250.351 25.472C249.753 26.496 248.964 27.6907 247.983 29.056C247.257 30.208 246.297 31.2747 245.103 32.256L243.439 33.856C242.5 34.7093 241.775 35.328 241.263 35.712L239.855 36.672C239.513 36.8427 239.343 37.1413 239.343 37.568L238.895 41.92C238.852 42.2613 238.788 42.7307 238.703 43.328C238.66 43.8827 238.639 44.352 238.639 44.736C238.639 45.1627 238.66 45.4827 238.703 45.696C238.873 46.72 238.98 47.8507 239.023 49.088C239.065 50.2827 239.087 51.0293 239.087 51.328C239.087 52.48 239.108 53.3333 239.151 53.888C239.193 54.1013 239.257 54.336 239.343 54.592C239.428 54.8053 239.492 54.976 239.535 55.104C239.961 56 240.644 56.7467 241.583 57.344C241.839 57.472 242.073 57.536 242.287 57.536C242.671 57.536 243.033 57.408 243.375 57.152C243.716 56.9387 243.951 56.7253 244.079 56.512L244.847 55.296C245.444 54.4853 245.913 53.76 246.255 53.12C248.217 49.3653 250.5 44.9067 253.103 39.744C253.657 38.6773 253.956 37.8667 253.999 37.312C254.041 36.7147 254.084 36.4373 254.127 36.48ZM239.47 35.008C239.556 35.008 239.62 35.0293 239.663 35.072C239.919 34.8587 240.153 34.688 240.367 34.56C240.58 34.432 240.772 34.304 240.943 34.176C242.692 32.8107 244.185 31.3387 245.423 29.76C247.044 27.5413 248.217 25.728 248.943 24.32C249.967 22.2293 250.543 21.056 250.671 20.8C251.012 20.032 251.503 18.624 252.143 16.576C252.441 15.7653 252.676 15.04 252.847 14.4L253.231 12.032C253.359 10.88 253.423 10.2613 253.423 10.176C253.423 9.96267 253.38 9.6 253.295 9.088C253.209 8.53333 253.039 7.91466 252.783 7.232C252.697 6.67733 252.484 6.25066 252.143 5.952C251.972 5.78133 251.887 5.58933 251.887 5.376C251.844 5.12 251.631 4.84266 251.247 4.544L250.415 4.16L249.903 4.032C249.604 4.032 249.348 4.16 249.135 4.416L248.623 4.992C247.727 6.4 247.172 7.296 246.958 7.68C246.233 8.87466 245.636 10.0693 245.167 11.264C244.74 12.4587 244.164 14.1867 243.439 16.448C243.311 16.7893 243.055 17.5787 242.671 18.816C242.329 20.0533 242.052 21.2053 241.839 22.272C241.668 22.9973 241.519 23.8293 241.391 24.768C241.305 25.664 241.241 26.304 241.199 26.688L241.007 28.16L240.815 29.44C240.729 29.952 240.644 30.3787 240.559 30.72C240.516 31.0187 240.409 31.3813 240.239 31.808C240.068 32.192 239.94 32.5333 239.855 32.832C239.769 33.088 239.705 33.4507 239.663 33.92C239.62 34.3467 239.556 34.7093 239.47 35.008ZM272.066 39.168C271.341 39.7653 270.573 40.2347 269.762 40.576C268.951 40.9173 268.055 41.2373 267.074 41.536C266.221 41.7493 265.73 41.92 265.602 42.048C265.431 42.1333 265.346 42.24 265.346 42.368C265.389 42.4533 265.474 42.5813 265.602 42.752C265.986 43.264 267.117 44.4373 268.994 46.272C269.037 46.3573 269.079 46.4427 269.122 46.528C269.165 46.6133 269.229 46.6987 269.314 46.784C269.655 47.168 269.933 47.6587 270.146 48.256C270.359 48.8107 270.509 49.1947 270.594 49.408C270.722 49.92 270.765 50.368 270.722 50.752V51.072C270.722 51.3707 270.786 51.6907 270.914 52.032C271.298 52.7573 271.49 53.7387 271.49 54.976C271.49 56.1707 271.191 57.9627 270.594 60.352C270.381 61.0773 269.826 61.7173 268.93 62.272C268.077 62.8693 266.925 63.5093 265.474 64.192C264.791 64.4907 264.13 64.8107 263.49 65.152C262.893 65.4933 262.423 65.8133 262.082 66.112C261.57 66.5813 260.887 66.9227 260.034 67.136C259.181 67.3493 258.306 67.456 257.41 67.456C256.429 67.456 255.554 67.2427 254.786 66.816C254.018 66.432 253.25 65.856 252.482 65.088C252.397 64.9173 252.269 64.8107 252.098 64.768C251.757 64.512 251.522 64.2773 251.394 64.064C251.266 63.8507 251.095 63.68 250.882 63.552C250.711 63.424 250.583 63.1893 250.498 62.848C250.413 62.1653 250.37 61.632 250.37 61.248C250.37 59.8827 250.647 58.496 251.202 57.088C251.714 55.68 252.439 54.3787 253.378 53.184C253.506 53.056 253.783 52.672 254.21 52.032C254.167 52.0747 254.53 51.648 255.298 50.752L256.194 49.792C257.005 48.9813 257.602 48.3413 257.986 47.872C257.986 47.872 258.157 47.7013 258.498 47.36C258.071 46.7627 257.623 46.2507 257.154 45.824L253.89 42.688C252.866 41.792 251.991 40.896 251.266 40C249.73 38.1227 248.663 36.6507 248.066 35.584C247.469 34.3893 247.106 33.0453 246.978 31.552C246.978 31.04 247.042 30.5707 247.17 30.144C247.426 28.6507 248.087 27.3067 249.154 26.112C249.197 26.0693 249.41 25.7707 249.794 25.216C250.178 24.6613 250.754 24.1707 251.522 23.744C252.247 23.2747 253.015 23.04 253.826 23.04C255.234 23.04 256.706 23.7013 258.242 25.024C258.626 25.1093 259.245 25.5147 260.098 26.24C260.951 26.9653 261.506 27.4347 261.762 27.648C262.018 27.8187 262.146 27.9893 262.146 28.16C262.146 28.3733 261.997 28.544 261.698 28.672C261.485 28.7573 260.909 28.5867 259.97 28.16C259.117 27.8187 258.605 27.648 258.434 27.648L257.794 27.968C257.709 28.0533 257.517 28.2667 257.218 28.608C256.962 28.9067 256.791 29.2267 256.706 29.568C256.706 29.6533 256.599 29.888 256.386 30.272C256.258 30.5707 256.194 30.8907 256.194 31.232C256.194 31.5307 256.215 31.7653 256.258 31.936C256.429 32.448 256.621 32.8107 256.834 33.024L256.898 33.152C257.026 33.4933 257.261 33.856 257.602 34.24C257.943 34.5813 258.221 34.88 258.434 35.136L259.074 35.712C259.415 36.0533 259.97 36.5227 260.738 37.12C262.018 38.272 262.679 38.8693 262.722 38.912C263.234 39.4667 263.725 40.0213 264.194 40.576C264.663 41.088 264.983 41.4507 265.154 41.664C265.282 41.5787 265.581 41.4933 266.05 41.408C266.519 41.28 266.882 41.1733 267.138 41.088C267.437 41.088 267.949 40.9387 268.674 40.64C269.399 40.2987 269.911 40.0853 270.21 40C270.722 39.872 271.469 39.3387 272.45 38.4C273.474 37.4613 274.093 36.9067 274.306 36.736C274.647 36.608 274.861 36.544 274.946 36.544C275.074 36.5013 275.117 36.544 275.074 36.672C275.031 36.7573 275.053 36.8 275.138 36.8L272.066 39.168ZM259.778 65.344C261.271 64.6613 262.018 62.912 262.018 60.096C262.018 59.2853 261.954 58.4533 261.826 57.6C261.698 56.7893 261.634 56.2773 261.634 56.064C261.634 54.3573 261.463 53.0133 261.122 52.032L260.994 51.52C260.909 51.136 260.631 50.5813 260.162 49.856C259.735 49.088 259.373 48.4693 259.074 48C259.074 47.9573 259.01 47.9147 258.882 47.872C258.797 47.9147 258.391 48.2987 257.666 49.024L256.514 50.112C256.173 50.5387 255.874 50.9013 255.618 51.2C255.362 51.456 255.234 51.6053 255.234 51.648C254.807 51.9467 254.402 52.3947 254.018 52.992C253.677 53.5893 253.399 54.016 253.186 54.272C252.973 54.528 252.738 54.8693 252.482 55.296C252.226 55.7227 252.077 56.064 252.034 56.32C251.906 56.448 251.842 56.576 251.842 56.704C251.799 56.832 251.757 56.96 251.714 57.088C251.629 57.344 251.543 57.6 251.458 57.856C251.373 58.1547 251.287 58.432 251.202 58.688C251.117 59.1147 251.074 59.456 251.074 59.712C251.074 59.8827 251.138 60.608 251.266 61.888C251.394 63.04 251.97 64.0213 252.994 64.832C254.018 65.6853 255.234 66.112 256.642 66.112C257.666 66.112 258.711 65.856 259.778 65.344ZM298.067 36.672C298.11 36.7573 298.238 36.9067 298.451 37.12C298.366 37.376 298.28 37.5467 298.195 37.632C297.726 38.2293 297.32 38.9333 296.979 39.744L296.851 40C296.851 40.2987 296.723 40.6613 296.467 41.088C296.254 41.472 296.126 41.7493 296.083 41.92C295.955 42.0907 295.806 42.3467 295.635 42.688C295.464 42.9867 295.294 43.264 295.123 43.52C294.782 43.9467 294.163 44.8427 293.267 46.208C292.67 47.232 292.094 48.1067 291.539 48.832C291.027 49.5147 290.387 50.1333 289.619 50.688C288.424 51.5413 287.294 52.2453 286.227 52.8C285.203 53.3547 284.094 53.7387 282.899 53.952C281.918 54.1227 281 54.208 280.147 54.208C279.123 54.208 278.334 54.1013 277.779 53.888C277.224 53.6747 276.755 53.4187 276.371 53.12C275.987 52.8213 275.731 52.6507 275.603 52.608C275.56 52.7787 275.518 52.8213 275.475 52.736C275.432 52.608 275.39 52.5227 275.347 52.48C274.408 51.84 273.726 51.2427 273.299 50.688C272.531 49.536 272.104 48.2133 272.019 46.72C271.934 44.8 271.976 43.1573 272.147 41.792C272.318 40.4693 272.424 39.424 272.467 38.656C272.467 38.528 272.51 38.2933 272.595 37.952C272.808 37.184 273.022 36.1387 273.235 34.816C273.406 34.0053 273.854 32.7253 274.579 30.976L274.835 30.464C275.091 30.208 275.347 29.7813 275.603 29.184L275.667 28.992C275.88 28.224 276.414 27.456 277.267 26.688L277.715 26.368C279.294 24.7893 281.128 24 283.219 24C283.646 24 284.136 24.0427 284.691 24.128C285.246 24.1707 285.715 24.192 286.099 24.192C287.678 24.192 289 24.7467 290.067 25.856C291.134 26.9653 291.667 28.3093 291.667 29.888C291.667 31.7653 290.856 33.5147 289.235 35.136C288.723 35.4347 288.403 35.6693 288.275 35.84C288.232 35.968 288.126 36.032 287.955 36.032C287.528 36.288 287.187 36.4587 286.931 36.544C286.675 36.6293 286.334 36.7787 285.907 36.992C285.48 37.1627 285.096 37.248 284.755 37.248C283.518 37.248 282.6 37.824 282.003 38.976C281.406 40.128 281.107 41.6 281.107 43.392C281.107 44.8427 281.299 46.2933 281.683 47.744C282.067 49.152 282.579 50.2827 283.219 51.136C283.902 51.9893 284.648 52.3307 285.459 52.16C287.336 51.8187 289.128 50.7093 290.835 48.832C292.584 46.912 294.078 44.8213 295.315 42.56C296.552 40.2987 297.47 38.336 298.067 36.672ZM290.899 29.184C290.6 28.8427 290.387 28.4587 290.259 28.032C290.259 27.8613 290.195 27.7547 290.067 27.712C289.64 27.2853 289.128 26.9013 288.531 26.56C287.976 26.2187 287.486 26.0693 287.059 26.112C286.291 26.24 285.8 26.624 285.587 27.264C285.502 27.4347 285.374 27.7547 285.203 28.224C285.032 28.6507 284.926 29.0773 284.883 29.504C284.883 29.7173 284.819 29.9307 284.691 30.144C284.563 30.4427 284.456 30.9547 284.371 31.68C284.328 32.3627 284.286 32.8533 284.243 33.152C284.158 33.8773 284.051 34.4107 283.923 34.752C283.752 35.2213 283.71 35.584 283.795 35.84C284.094 35.7973 284.435 35.8187 284.819 35.904C285.246 35.9467 285.608 35.968 285.907 35.968C286.206 35.968 286.504 35.904 286.803 35.776C287.486 35.4347 287.998 35.008 288.339 34.496C288.936 34.0693 289.406 33.4933 289.747 32.768C290.131 32 290.387 31.488 290.515 31.232C290.643 31.0187 290.664 30.848 290.579 30.72V30.464C290.579 30.3787 290.622 30.1653 290.707 29.824L290.899 29.184ZM407.652 25.728C408.484 25.472 408.804 26.048 407.908 26.368C402.148 28.672 396.324 28.928 390.564 25.728C387.684 24 385.444 22.016 382.564 20.288C380.004 18.304 375.972 16.448 372.836 15.616C368.804 14.72 364.771 14.912 360.996 16.64C358.692 17.792 356.516 19.392 355.108 21.696C354.404 22.72 353.636 23.936 352.996 25.216C355.812 25.92 358.756 27.456 359.012 30.912C359.012 34.112 355.876 36.992 352.676 34.688C349.924 32.576 350.82 28.672 352.228 25.472C347.236 24.064 341.988 25.408 338.852 29.056C336.42 31.936 334.436 35.584 332.964 39.04C332.772 39.552 332.388 40.32 332.132 40.832C331.812 41.6 331.812 41.92 331.364 42.752C331.044 43.392 330.724 44.224 330.34 44.8C329.316 46.528 328.548 48.448 327.588 50.176C326.564 52.16 325.668 54.208 324.26 56C322.852 57.664 317.988 61.76 314.532 58.816C313.764 58.624 313.252 58.112 312.932 57.408C312.74 56.896 312.484 56.384 312.42 55.808C312.164 54.4 312.036 52.928 312.036 51.52V49.856C312.164 47.424 312.484 45.12 312.996 42.752C313.188 41.792 313.316 40.832 313.508 39.872L314.083 36.16C314.276 35.2 314.468 34.24 314.596 33.28C314.788 32.128 314.98 31.04 314.98 29.888V29.568C313.892 27.392 311.972 28.736 310.116 31.872C309.348 33.024 308.452 34.816 307.62 35.968C306.852 37.056 306.276 39.04 305.7 40.192C305.188 41.28 304.484 42.368 304.1 43.456C304.1 43.456 304.1 43.52 304.036 43.52C303.652 43.968 303.524 49.856 302.308 52.352C300.644 56.896 297.508 50.88 297.508 50.496C297.444 50.24 297.444 49.984 297.38 49.728C297.316 49.088 297.252 48.512 297.252 47.872C297.252 47.68 297.252 47.424 297.188 47.232C297.188 47.04 297.252 46.848 297.188 46.656C297.059 45.568 297.059 44.48 297.059 43.392C297.059 43.2 297.059 43.008 296.995 42.816C296.931 42.112 296.931 41.344 296.931 40.576V39.04C296.867 37.952 296.867 36.928 296.867 35.84C296.867 35.456 296.867 35.136 296.803 34.752V34.304L297.188 28.992C297.252 27.968 297.38 26.88 297.508 25.856C297.572 25.408 297.7 24.96 297.828 24.512C297.892 24.192 298.148 24 298.468 23.936C299.299 23.808 300.004 23.872 300.772 24.256C300.836 24.256 300.9 24.32 300.9 24.384C301.092 24.704 301.411 24.832 301.668 25.024L301.924 25.856C301.988 25.92 301.988 25.984 302.052 25.984C302.628 26.24 302.884 26.688 302.948 27.328C302.948 28.096 302.82 28.928 303.076 29.696C303.268 30.336 303.588 30.976 303.46 31.68C303.396 32.576 303.332 33.408 303.204 34.24C303.076 35.264 302.884 36.224 302.948 37.248C302.948 37.632 303.14 38.016 303.14 38.4C303.14 38.848 303.012 39.296 303.076 39.744C303.14 40.32 303.14 40.896 303.076 41.472C303.076 41.984 303.076 42.432 303.14 42.944C303.396 42.944 303.396 42.752 303.46 42.624L304.932 39.744C305.06 39.424 305.252 39.168 305.38 38.848L305.764 37.952C305.956 37.504 306.148 36.992 306.404 36.544C306.595 36.288 306.724 36.032 306.852 35.776L308.964 31.936C309.348 31.296 309.732 30.592 310.18 29.952L311.524 27.968C311.972 27.392 312.42 26.88 312.932 26.432C315.492 24.192 320.42 23.168 322.724 25.792C323.108 26.24 323.556 26.624 323.94 27.008C324.132 27.264 324.324 27.52 324.26 27.776C324.196 28.16 324.324 28.48 324.452 28.864C324.9 30.144 324.9 32.32 324.708 33.728C324.644 34.304 324.516 34.944 324.388 35.52C323.748 38.4 322.916 41.28 322.34 44.224C321.508 48.704 316.068 63.488 325.412 52.736C326.372 51.072 327.332 49.408 328.164 47.744C330.02 44.352 328.676 46.528 330.596 43.2C330.979 42.56 332.132 39.552 332.388 38.912C332.644 38.272 333.092 37.248 333.284 36.992C335.14 33.216 337.444 29.312 340.58 26.624C343.78 24.32 347.812 24 351.524 24.896L352.42 25.088C352.868 24.128 353.38 23.296 353.828 22.592C354.98 20.864 356.132 18.816 357.86 17.664C360.42 15.68 363.876 14.528 367.332 14.528C370.788 14.208 374.244 15.104 377.444 16.512C380.9 17.984 383.716 20.288 386.916 22.592C389.796 24.576 392.932 26.624 396.388 27.2C400.164 28.032 403.876 27.2 407.652 25.728ZM355.748 26.944C354.788 26.368 353.764 25.984 352.74 25.664C352.164 26.816 351.716 28.032 351.588 29.12C351.332 30.272 351.588 32.512 352.1 33.344C353.38 35.328 355.684 34.944 356.836 34.368C359.14 32.96 359.14 28.864 355.748 26.944Z" fill="white"/>
</svg>
