<svg width="234" height="38" viewBox="0 0 234 38" fill="none" xmlns="http://www.w3.org/2000/svg">
<path d="M5.62 29V28.6H7.06C7.75333 28.6 8.31333 28.5067 8.74 28.32C9.16667 28.1333 9.46 27.8133 9.62 27.36C9.80667 26.9067 9.9 26.2667 9.9 25.44V0.919999H5.22C4.15333 0.919999 3.32667 1.05333 2.74 1.32C2.15333 1.56 1.72667 1.98667 1.46 2.6C1.22 3.18667 1.07333 4.01333 1.02 5.08L0.9 7H0.5L0.74 0.439998H21.82L22.06 7H21.66L21.54 5.08C21.4867 4.01333 21.3267 3.18667 21.06 2.6C20.82 1.98667 20.4067 1.56 19.82 1.32C19.2333 1.05333 18.42 0.919999 17.38 0.919999H12.58V25.44C12.58 26.2667 12.66 26.9067 12.82 27.36C13.0067 27.8133 13.3 28.1333 13.7 28.32C14.1267 28.5067 14.7 28.6 15.42 28.6H16.86V29H5.62ZM20.8538 29V28.6H21.9338C22.6271 28.6 23.1738 28.5067 23.5738 28.32C24.0004 28.1333 24.2938 27.8133 24.4538 27.36C24.6404 26.9067 24.7338 26.2667 24.7338 25.44V3.92C24.7338 3.12 24.6404 2.50667 24.4538 2.08C24.2938 1.62666 24.0004 1.30666 23.5738 1.12C23.1738 0.933331 22.6271 0.839998 21.9338 0.839998H20.8538V0.439998H31.3338V0.839998H30.2538C29.5604 0.839998 29.0004 0.933331 28.5738 1.12C28.1738 1.30666 27.8804 1.62666 27.6938 2.08C27.5338 2.53333 27.4538 3.17333 27.4538 4V13.88H41.8938V4C41.8938 3.17333 41.8004 2.53333 41.6138 2.08C41.4538 1.62666 41.1738 1.30666 40.7738 1.12C40.3738 0.933331 39.8138 0.839998 39.0938 0.839998H38.0138V0.439998H48.4938V0.839998H47.4138C46.7204 0.839998 46.1738 0.933331 45.7738 1.12C45.3738 1.30666 45.0804 1.62666 44.8938 2.08C44.7071 2.50667 44.6138 3.12 44.6138 3.92V25.44C44.6138 26.2667 44.7071 26.9067 44.8938 27.36C45.0804 27.8133 45.3738 28.1333 45.7738 28.32C46.1738 28.5067 46.7204 28.6 47.4138 28.6H48.4938V29H38.0138V28.6H39.0938C39.8138 28.6 40.3738 28.5067 40.7738 28.32C41.1738 28.1333 41.4538 27.8133 41.6138 27.36C41.8004 26.9067 41.8938 26.2667 41.8938 25.44V14.28H27.4538V25.44C27.4538 26.2667 27.5338 26.9067 27.6938 27.36C27.8804 27.8133 28.1738 28.1333 28.5738 28.32C29.0004 28.5067 29.5604 28.6 30.2538 28.6H31.3338V29H20.8538ZM47.9466 29V28.6H49.0266C49.7199 28.6 50.2666 28.5067 50.6666 28.32C51.0932 28.1333 51.3866 27.8133 51.5466 27.36C51.7332 26.9067 51.8266 26.2667 51.8266 25.44V3.92C51.8266 3.12 51.7332 2.50667 51.5466 2.08C51.3866 1.62666 51.0932 1.30666 50.6666 1.12C50.2666 0.933331 49.7199 0.839998 49.0266 0.839998H47.9466V0.439998H66.9466L67.1866 7.24H66.7866L66.6666 4.96C66.6132 3.89333 66.4532 3.06667 66.1866 2.48C65.9466 1.89333 65.5332 1.48 64.9466 1.24C64.3599 0.973332 63.5466 0.839998 62.5066 0.839998H54.5466V13.84H64.4666V14.24H54.5466V28.6H63.6666C64.7599 28.6 65.6132 28.48 66.2266 28.24C66.8399 27.9733 67.2799 27.5467 67.5466 26.96C67.8132 26.3467 67.9732 25.52 68.0266 24.48L68.1466 22.2H68.5466L68.2666 29H47.9466ZM73.2288 29V28.6H74.2688C74.9621 28.6 75.5088 28.5067 75.9088 28.32C76.3354 28.1333 76.6288 27.8133 76.7888 27.36C76.9754 26.9067 77.0688 26.2667 77.0688 25.44V3.92C77.0688 3.12 76.9754 2.50667 76.7888 2.08C76.6288 1.62666 76.3354 1.30666 75.9088 1.12C75.5088 0.933331 74.9621 0.839998 74.2688 0.839998H73.2288V0.439998H83.4288C86.6554 0.439998 89.0554 0.999998 90.6288 2.12C92.2021 3.21333 92.9888 4.93333 92.9888 7.28C92.9888 8.66667 92.7221 9.81333 92.1888 10.72C91.6821 11.6267 90.9354 12.3333 89.9488 12.84C88.9621 13.32 87.7621 13.6533 86.3488 13.84V13.92C88.1888 14.0267 89.6821 14.3867 90.8288 15C92.0021 15.6133 92.8554 16.44 93.3888 17.48C93.9221 18.52 94.1888 19.7467 94.1888 21.16C94.1888 23.8533 93.3888 25.84 91.7888 27.12C90.2154 28.3733 87.8288 29 84.6288 29H73.2288ZM84.4288 28.6C86.9354 28.6 88.7088 28.0133 89.7488 26.84C90.8154 25.6667 91.3488 23.8 91.3488 21.24C91.3488 19.5867 91.1354 18.2533 90.7088 17.24C90.2821 16.2 89.5754 15.44 88.5888 14.96C87.6021 14.4533 86.2688 14.2 84.5888 14.2H79.7888V28.6H84.4288ZM83.3088 13.8C85.0421 13.8 86.4021 13.5733 87.3888 13.12C88.4021 12.6667 89.1088 11.9733 89.5088 11.04C89.9354 10.1067 90.1488 8.90667 90.1488 7.44C90.1488 5.04 89.6154 3.34667 88.5488 2.36C87.5088 1.34667 85.7354 0.839998 83.2287 0.839998H79.7888V13.8H83.3088ZM107.336 29.4C104.642 29.4 102.402 28.8 100.616 27.6C98.829 26.4 97.4956 24.7067 96.6156 22.52C95.7356 20.3067 95.2956 17.68 95.2956 14.64C95.2956 11.6 95.7356 9 96.6156 6.84C97.5223 4.65333 98.869 2.97333 100.656 1.8C102.469 0.599999 104.709 -9.53674e-07 107.376 -9.53674e-07C110.096 -9.53674e-07 112.336 0.599999 114.096 1.8C115.856 2.97333 117.176 4.66667 118.056 6.88C118.936 9.06667 119.376 11.6667 119.376 14.68C119.376 17.64 118.922 20.2267 118.016 22.44C117.136 24.6267 115.802 26.3333 114.016 27.56C112.256 28.7867 110.029 29.4 107.336 29.4ZM107.336 29C108.936 29 110.309 28.7067 111.456 28.12C112.602 27.5333 113.536 26.6533 114.256 25.48C115.002 24.28 115.549 22.7867 115.896 21C116.242 19.1867 116.416 17.08 116.416 14.68C116.416 12.28 116.242 10.1867 115.896 8.4C115.576 6.61333 115.056 5.13333 114.336 3.96C113.616 2.76 112.682 1.86667 111.536 1.28C110.389 0.693332 109.002 0.399999 107.376 0.399999C105.829 0.399999 104.482 0.693332 103.336 1.28C102.189 1.86667 101.229 2.76 100.456 3.96C99.709 5.13333 99.149 6.61333 98.7756 8.4C98.4023 10.1867 98.2156 12.28 98.2156 14.68C98.2156 17.08 98.4023 19.1867 98.7756 21C99.149 22.7867 99.709 24.28 100.456 25.48C101.202 26.6533 102.149 27.5333 103.296 28.12C104.442 28.7067 105.789 29 107.336 29ZM131.768 29.4C129.794 29.4 128.074 29.1067 126.608 28.52C125.168 27.9067 124.048 26.9467 123.248 25.64C122.474 24.3067 122.088 22.56 122.088 20.4V3.92C122.088 3.12 121.994 2.50667 121.808 2.08C121.648 1.62666 121.354 1.30666 120.928 1.12C120.527 0.933331 119.981 0.839998 119.288 0.839998H118.248V0.439998H128.648V0.839998H127.608C126.914 0.839998 126.354 0.933331 125.928 1.12C125.528 1.30666 125.234 1.62666 125.048 2.08C124.888 2.53333 124.808 3.17333 124.808 4V20.6C124.808 22.6267 125.101 24.24 125.688 25.44C126.301 26.64 127.154 27.5067 128.247 28.04C129.368 28.5467 130.648 28.8 132.088 28.8C133.848 28.8 135.368 28.4933 136.648 27.88C137.954 27.2667 138.954 26.3733 139.648 25.2C140.368 24 140.728 22.56 140.728 20.88V3.92C140.728 3.12 140.634 2.50667 140.448 2.08C140.288 1.62666 139.994 1.30666 139.568 1.12C139.168 0.933331 138.608 0.839998 137.887 0.839998H136.888V0.439998H144.928V0.839998H143.928C143.234 0.839998 142.674 0.933331 142.248 1.12C141.848 1.30666 141.554 1.62666 141.368 2.08C141.208 2.53333 141.128 3.17333 141.128 4V20.96C141.128 22.6933 140.754 24.2 140.008 25.48C139.261 26.7333 138.194 27.7067 136.808 28.4C135.421 29.0667 133.741 29.4 131.768 29.4ZM163.655 38C162.669 38 161.695 37.8667 160.735 37.6C159.775 37.3333 158.882 36.88 158.055 36.24C157.229 35.6267 156.535 34.7467 155.975 33.6C155.442 32.48 155.109 31.0667 154.975 29.36C152.549 29.2 150.509 28.52 148.855 27.32C147.229 26.0933 146.002 24.4133 145.175 22.28C144.375 20.12 143.975 17.5733 143.975 14.64C143.975 11.68 144.402 9.10667 145.255 6.92C146.135 4.73333 147.469 3.04 149.255 1.84C151.069 0.613332 153.335 -9.53674e-07 156.055 -9.53674e-07C158.749 -9.53674e-07 160.975 0.599999 162.735 1.8C164.522 2.97333 165.855 4.65333 166.735 6.84C167.615 9.02667 168.055 11.64 168.055 14.68C168.055 17.48 167.669 19.92 166.895 22C166.122 24.08 164.975 25.7467 163.455 27C161.962 28.2267 160.095 28.9867 157.855 29.28C157.962 30.8533 158.175 32.1733 158.495 33.24C158.815 34.3067 159.229 35.16 159.735 35.8C160.269 36.44 160.895 36.8933 161.615 37.16C162.362 37.4533 163.189 37.6 164.095 37.6H164.735V38H163.655ZM156.015 29C157.615 29 158.989 28.7067 160.135 28.12C161.282 27.5333 162.215 26.6533 162.935 25.48C163.682 24.28 164.229 22.7867 164.575 21C164.922 19.2133 165.095 17.1067 165.095 14.68C165.095 12.28 164.922 10.1867 164.575 8.4C164.255 6.61333 163.735 5.13333 163.015 3.96C162.295 2.76 161.362 1.86667 160.215 1.28C159.069 0.693332 157.682 0.399999 156.055 0.399999C154.429 0.399999 153.042 0.706665 151.895 1.32C150.749 1.93333 149.802 2.84 149.055 4.04C148.309 5.24 147.762 6.73333 147.415 8.52C147.069 10.28 146.895 12.3333 146.895 14.68C146.895 17.08 147.082 19.1867 147.455 21C147.829 22.7867 148.389 24.28 149.135 25.48C149.882 26.6533 150.829 27.5333 151.975 28.12C153.122 28.7067 154.469 29 156.015 29ZM180.447 29.4C178.474 29.4 176.754 29.1067 175.287 28.52C173.847 27.9067 172.727 26.9467 171.927 25.64C171.154 24.3067 170.767 22.56 170.767 20.4V3.92C170.767 3.12 170.674 2.50667 170.487 2.08C170.327 1.62666 170.034 1.30666 169.607 1.12C169.207 0.933331 168.661 0.839998 167.967 0.839998H166.927V0.439998H177.327V0.839998H176.287C175.594 0.839998 175.034 0.933331 174.607 1.12C174.207 1.30666 173.914 1.62666 173.727 2.08C173.567 2.53333 173.487 3.17333 173.487 4V20.6C173.487 22.6267 173.781 24.24 174.367 25.44C174.981 26.64 175.834 27.5067 176.927 28.04C178.047 28.5467 179.327 28.8 180.767 28.8C182.527 28.8 184.047 28.4933 185.327 27.88C186.634 27.2667 187.634 26.3733 188.327 25.2C189.047 24 189.407 22.56 189.407 20.88V3.92C189.407 3.12 189.314 2.50667 189.127 2.08C188.967 1.62666 188.674 1.30666 188.247 1.12C187.847 0.933331 187.287 0.839998 186.567 0.839998H185.567V0.439998H193.607V0.839998H192.607C191.914 0.839998 191.354 0.933331 190.927 1.12C190.527 1.30666 190.234 1.62666 190.047 2.08C189.887 2.53333 189.807 3.17333 189.807 4V20.96C189.807 22.6933 189.434 24.2 188.687 25.48C187.941 26.7333 186.874 27.7067 185.487 28.4C184.101 29.0667 182.421 29.4 180.447 29.4ZM192.095 29V28.6H193.175C193.868 28.6 194.415 28.5067 194.815 28.32C195.242 28.1333 195.535 27.8133 195.695 27.36C195.882 26.9067 195.975 26.2667 195.975 25.44V3.92C195.975 3.12 195.882 2.50667 195.695 2.08C195.535 1.62666 195.242 1.30666 194.815 1.12C194.415 0.933331 193.868 0.839998 193.175 0.839998H192.095V0.439998H211.095L211.335 7.24H210.935L210.815 4.96C210.762 3.89333 210.602 3.06667 210.335 2.48C210.095 1.89333 209.682 1.48 209.095 1.24C208.508 0.973332 207.695 0.839998 206.655 0.839998H198.695V13.84H208.615V14.24H198.695V28.6H207.815C208.908 28.6 209.762 28.48 210.375 28.24C210.988 27.9733 211.428 27.5467 211.695 26.96C211.962 26.3467 212.122 25.52 212.175 24.48L212.295 22.2H212.695L212.415 29H192.095ZM216.753 29V28.6H218.193C218.886 28.6 219.446 28.5067 219.873 28.32C220.299 28.1333 220.593 27.8133 220.753 27.36C220.939 26.9067 221.033 26.2667 221.033 25.44V0.919999H216.353C215.286 0.919999 214.459 1.05333 213.873 1.32C213.286 1.56 212.859 1.98667 212.593 2.6C212.353 3.18667 212.206 4.01333 212.153 5.08L212.033 7H211.633L211.873 0.439998H232.953L233.193 7H232.793L232.673 5.08C232.619 4.01333 232.459 3.18667 232.193 2.6C231.953 1.98667 231.539 1.56 230.953 1.32C230.366 1.05333 229.553 0.919999 228.513 0.919999H223.713V25.44C223.713 26.2667 223.793 26.9067 223.953 27.36C224.139 27.8133 224.433 28.1333 224.833 28.32C225.259 28.5067 225.833 28.6 226.553 28.6H227.993V29H216.753Z" fill="white"/>
</svg>
